<svg xmlns="http://www.w3.org/2000/svg" xmlns:xlink="http://www.w3.org/1999/xlink" width="248" height="118" viewBox="0 0 248 118">
  <defs>
    <style>
      .cls-1 {
        fill: #242b2f;
      }

      .cls-2 {
        clip-path: url(#clip-path);
      }
    </style>
    <clipPath id="clip-path">
      <rect id="사각형_865" data-name="사각형 865" class="cls-1" width="248" height="118"/>
    </clipPath>
  </defs>
  <g id="img_circle_square_w248" class="cls-2">
    <path id="패스_205" data-name="패스 205" class="cls-1" d="M375.073,4.228A4.2,4.2,0,1,1,370.87,0a4.216,4.216,0,0,1,4.2,4.228" transform="translate(-127.073)"/>
    <path id="패스_206" data-name="패스 206" class="cls-1" d="M375.073,37.561a4.2,4.2,0,1,1-4.2-4.228,4.216,4.216,0,0,1,4.2,4.228" transform="translate(-127.073 -11.424)"/>
    <path id="패스_207" data-name="패스 207" class="cls-1" d="M375.073,70.894a4.2,4.2,0,1,1-4.2-4.228,4.216,4.216,0,0,1,4.2,4.228" transform="translate(-127.073 -22.849)"/>
    <path id="패스_208" data-name="패스 208" class="cls-1" d="M375.073,104.228a4.2,4.2,0,1,1-4.2-4.228,4.216,4.216,0,0,1,4.2,4.228" transform="translate(-127.073 -34.274)"/>
    <path id="패스_209" data-name="패스 209" class="cls-1" d="M375.073,137.561a4.2,4.2,0,1,1-4.2-4.228,4.216,4.216,0,0,1,4.2,4.228" transform="translate(-127.073 -45.698)"/>
    <path id="패스_210" data-name="패스 210" class="cls-1" d="M375.073,170.894a4.2,4.2,0,1,1-4.2-4.228,4.216,4.216,0,0,1,4.2,4.228" transform="translate(-127.073 -57.122)"/>
    <path id="패스_211" data-name="패스 211" class="cls-1" d="M341.74,4.228A4.2,4.2,0,1,1,337.537,0a4.216,4.216,0,0,1,4.2,4.228" transform="translate(-115.521)"/>
    <path id="패스_212" data-name="패스 212" class="cls-1" d="M341.74,37.561a4.2,4.2,0,1,1-4.2-4.228,4.216,4.216,0,0,1,4.2,4.228" transform="translate(-115.521 -11.424)"/>
    <path id="패스_213" data-name="패스 213" class="cls-1" d="M341.74,70.894a4.2,4.2,0,1,1-4.2-4.228,4.216,4.216,0,0,1,4.2,4.228" transform="translate(-115.521 -22.849)"/>
    <path id="패스_214" data-name="패스 214" class="cls-1" d="M341.74,104.228a4.2,4.2,0,1,1-4.2-4.228,4.216,4.216,0,0,1,4.2,4.228" transform="translate(-115.521 -34.274)"/>
    <path id="패스_215" data-name="패스 215" class="cls-1" d="M341.74,137.561a4.2,4.2,0,1,1-4.2-4.228,4.216,4.216,0,0,1,4.2,4.228" transform="translate(-115.521 -45.698)"/>
    <path id="패스_216" data-name="패스 216" class="cls-1" d="M341.74,170.894a4.2,4.2,0,1,1-4.2-4.228,4.216,4.216,0,0,1,4.2,4.228" transform="translate(-115.521 -57.122)"/>
    <path id="패스_217" data-name="패스 217" class="cls-1" d="M308.407,4.228A4.2,4.2,0,1,1,304.2,0a4.216,4.216,0,0,1,4.2,4.228" transform="translate(-103.969)"/>
    <path id="패스_218" data-name="패스 218" class="cls-1" d="M308.407,37.561a4.2,4.2,0,1,1-4.2-4.228,4.216,4.216,0,0,1,4.2,4.228" transform="translate(-103.969 -11.424)"/>
    <path id="패스_219" data-name="패스 219" class="cls-1" d="M308.407,70.894a4.2,4.2,0,1,1-4.2-4.228,4.216,4.216,0,0,1,4.2,4.228" transform="translate(-103.969 -22.849)"/>
    <path id="패스_220" data-name="패스 220" class="cls-1" d="M308.407,104.228A4.2,4.2,0,1,1,304.2,100a4.216,4.216,0,0,1,4.2,4.228" transform="translate(-103.969 -34.274)"/>
    <path id="패스_221" data-name="패스 221" class="cls-1" d="M308.407,137.561a4.2,4.2,0,1,1-4.2-4.228,4.216,4.216,0,0,1,4.2,4.228" transform="translate(-103.969 -45.698)"/>
    <path id="패스_222" data-name="패스 222" class="cls-1" d="M308.407,170.894a4.2,4.2,0,1,1-4.2-4.228,4.216,4.216,0,0,1,4.2,4.228" transform="translate(-103.969 -57.122)"/>
    <path id="패스_223" data-name="패스 223" class="cls-1" d="M275.073,4.228A4.2,4.2,0,1,1,270.87,0a4.216,4.216,0,0,1,4.2,4.228" transform="translate(-92.417)"/>
    <path id="패스_224" data-name="패스 224" class="cls-1" d="M275.073,37.561a4.2,4.2,0,1,1-4.2-4.228,4.216,4.216,0,0,1,4.2,4.228" transform="translate(-92.417 -11.424)"/>
    <path id="패스_225" data-name="패스 225" class="cls-1" d="M275.073,70.894a4.2,4.2,0,1,1-4.2-4.228,4.216,4.216,0,0,1,4.2,4.228" transform="translate(-92.417 -22.849)"/>
    <path id="패스_226" data-name="패스 226" class="cls-1" d="M275.073,104.228a4.2,4.2,0,1,1-4.2-4.228,4.216,4.216,0,0,1,4.2,4.228" transform="translate(-92.417 -34.274)"/>
    <path id="패스_227" data-name="패스 227" class="cls-1" d="M275.073,137.561a4.2,4.2,0,1,1-4.2-4.228,4.216,4.216,0,0,1,4.2,4.228" transform="translate(-92.417 -45.698)"/>
    <path id="패스_228" data-name="패스 228" class="cls-1" d="M275.073,170.894a4.2,4.2,0,1,1-4.2-4.228,4.216,4.216,0,0,1,4.2,4.228" transform="translate(-92.417 -57.122)"/>
    <path id="패스_229" data-name="패스 229" class="cls-1" d="M241.74,4.228A4.2,4.2,0,1,1,237.537,0a4.216,4.216,0,0,1,4.2,4.228" transform="translate(-80.865)"/>
    <path id="패스_230" data-name="패스 230" class="cls-1" d="M241.74,37.561a4.2,4.2,0,1,1-4.2-4.228,4.216,4.216,0,0,1,4.2,4.228" transform="translate(-80.865 -11.424)"/>
    <path id="패스_231" data-name="패스 231" class="cls-1" d="M241.74,70.894a4.2,4.2,0,1,1-4.2-4.228,4.216,4.216,0,0,1,4.2,4.228" transform="translate(-80.865 -22.849)"/>
    <path id="패스_232" data-name="패스 232" class="cls-1" d="M241.74,104.228a4.2,4.2,0,1,1-4.2-4.228,4.216,4.216,0,0,1,4.2,4.228" transform="translate(-80.865 -34.274)"/>
    <path id="패스_233" data-name="패스 233" class="cls-1" d="M241.74,137.561a4.2,4.2,0,1,1-4.2-4.228,4.216,4.216,0,0,1,4.2,4.228" transform="translate(-80.865 -45.698)"/>
    <path id="패스_234" data-name="패스 234" class="cls-1" d="M241.74,170.894a4.2,4.2,0,1,1-4.2-4.228,4.216,4.216,0,0,1,4.2,4.228" transform="translate(-80.865 -57.122)"/>
    <path id="패스_235" data-name="패스 235" class="cls-1" d="M208.406,4.228A4.2,4.2,0,1,1,204.2,0a4.216,4.216,0,0,1,4.2,4.228" transform="translate(-69.313)"/>
    <path id="패스_236" data-name="패스 236" class="cls-1" d="M208.406,37.561a4.2,4.2,0,1,1-4.2-4.228,4.216,4.216,0,0,1,4.2,4.228" transform="translate(-69.313 -11.424)"/>
    <path id="패스_237" data-name="패스 237" class="cls-1" d="M208.406,70.894a4.2,4.2,0,1,1-4.2-4.228,4.216,4.216,0,0,1,4.2,4.228" transform="translate(-69.313 -22.849)"/>
    <path id="패스_238" data-name="패스 238" class="cls-1" d="M208.406,104.228A4.2,4.2,0,1,1,204.2,100a4.216,4.216,0,0,1,4.2,4.228" transform="translate(-69.313 -34.274)"/>
    <path id="패스_239" data-name="패스 239" class="cls-1" d="M208.406,137.561a4.2,4.2,0,1,1-4.2-4.228,4.216,4.216,0,0,1,4.2,4.228" transform="translate(-69.313 -45.698)"/>
    <path id="패스_240" data-name="패스 240" class="cls-1" d="M208.406,170.894a4.2,4.2,0,1,1-4.2-4.228,4.216,4.216,0,0,1,4.2,4.228" transform="translate(-69.313 -57.122)"/>
    <path id="패스_241" data-name="패스 241" class="cls-1" d="M175.073,4.228A4.2,4.2,0,1,1,170.87,0a4.216,4.216,0,0,1,4.2,4.228" transform="translate(-57.761)"/>
    <path id="패스_242" data-name="패스 242" class="cls-1" d="M175.073,37.561a4.2,4.2,0,1,1-4.2-4.228,4.216,4.216,0,0,1,4.2,4.228" transform="translate(-57.761 -11.424)"/>
    <path id="패스_243" data-name="패스 243" class="cls-1" d="M175.073,70.894a4.2,4.2,0,1,1-4.2-4.228,4.216,4.216,0,0,1,4.2,4.228" transform="translate(-57.761 -22.849)"/>
    <path id="패스_244" data-name="패스 244" class="cls-1" d="M175.073,104.228a4.2,4.2,0,1,1-4.2-4.228,4.216,4.216,0,0,1,4.2,4.228" transform="translate(-57.761 -34.274)"/>
    <path id="패스_245" data-name="패스 245" class="cls-1" d="M175.073,137.561a4.2,4.2,0,1,1-4.2-4.228,4.216,4.216,0,0,1,4.2,4.228" transform="translate(-57.761 -45.698)"/>
    <path id="패스_246" data-name="패스 246" class="cls-1" d="M175.073,170.894a4.2,4.2,0,1,1-4.2-4.228,4.216,4.216,0,0,1,4.2,4.228" transform="translate(-57.761 -57.122)"/>
    <path id="패스_247" data-name="패스 247" class="cls-1" d="M141.74,4.228A4.2,4.2,0,1,1,137.537,0a4.216,4.216,0,0,1,4.2,4.228" transform="translate(-46.209)"/>
    <path id="패스_248" data-name="패스 248" class="cls-1" d="M141.74,37.561a4.2,4.2,0,1,1-4.2-4.228,4.216,4.216,0,0,1,4.2,4.228" transform="translate(-46.209 -11.424)"/>
    <path id="패스_249" data-name="패스 249" class="cls-1" d="M141.74,70.894a4.2,4.2,0,1,1-4.2-4.228,4.216,4.216,0,0,1,4.2,4.228" transform="translate(-46.209 -22.849)"/>
    <path id="패스_250" data-name="패스 250" class="cls-1" d="M141.74,104.228a4.2,4.2,0,1,1-4.2-4.228,4.216,4.216,0,0,1,4.2,4.228" transform="translate(-46.209 -34.274)"/>
    <path id="패스_251" data-name="패스 251" class="cls-1" d="M141.74,137.561a4.2,4.2,0,1,1-4.2-4.228,4.216,4.216,0,0,1,4.2,4.228" transform="translate(-46.209 -45.698)"/>
    <path id="패스_252" data-name="패스 252" class="cls-1" d="M141.74,170.894a4.2,4.2,0,1,1-4.2-4.228,4.216,4.216,0,0,1,4.2,4.228" transform="translate(-46.209 -57.122)"/>
    <path id="패스_253" data-name="패스 253" class="cls-1" d="M108.407,4.228A4.2,4.2,0,1,1,104.2,0a4.216,4.216,0,0,1,4.2,4.228" transform="translate(-34.656)"/>
    <path id="패스_254" data-name="패스 254" class="cls-1" d="M108.407,37.561a4.2,4.2,0,1,1-4.2-4.228,4.216,4.216,0,0,1,4.2,4.228" transform="translate(-34.656 -11.424)"/>
    <path id="패스_255" data-name="패스 255" class="cls-1" d="M108.407,70.894a4.2,4.2,0,1,1-4.2-4.228,4.216,4.216,0,0,1,4.2,4.228" transform="translate(-34.656 -22.849)"/>
    <path id="패스_256" data-name="패스 256" class="cls-1" d="M108.407,104.228A4.2,4.2,0,1,1,104.2,100a4.216,4.216,0,0,1,4.2,4.228" transform="translate(-34.656 -34.274)"/>
    <path id="패스_257" data-name="패스 257" class="cls-1" d="M108.407,137.561a4.2,4.2,0,1,1-4.2-4.228,4.216,4.216,0,0,1,4.2,4.228" transform="translate(-34.656 -45.698)"/>
    <path id="패스_258" data-name="패스 258" class="cls-1" d="M108.407,170.894a4.2,4.2,0,1,1-4.2-4.228,4.216,4.216,0,0,1,4.2,4.228" transform="translate(-34.656 -57.122)"/>
    <path id="패스_259" data-name="패스 259" class="cls-1" d="M75.073,4.228A4.2,4.2,0,1,1,70.87,0a4.216,4.216,0,0,1,4.2,4.228" transform="translate(-23.104)"/>
    <path id="패스_260" data-name="패스 260" class="cls-1" d="M75.073,37.561a4.2,4.2,0,1,1-4.2-4.228,4.216,4.216,0,0,1,4.2,4.228" transform="translate(-23.104 -11.424)"/>
    <path id="패스_261" data-name="패스 261" class="cls-1" d="M75.073,70.894a4.2,4.2,0,1,1-4.2-4.228,4.216,4.216,0,0,1,4.2,4.228" transform="translate(-23.104 -22.849)"/>
    <path id="패스_262" data-name="패스 262" class="cls-1" d="M75.073,104.228A4.2,4.2,0,1,1,70.87,100a4.216,4.216,0,0,1,4.2,4.228" transform="translate(-23.104 -34.274)"/>
    <path id="패스_263" data-name="패스 263" class="cls-1" d="M75.073,137.561a4.2,4.2,0,1,1-4.2-4.228,4.216,4.216,0,0,1,4.2,4.228" transform="translate(-23.104 -45.698)"/>
    <path id="패스_264" data-name="패스 264" class="cls-1" d="M75.073,170.894a4.2,4.2,0,1,1-4.2-4.228,4.216,4.216,0,0,1,4.2,4.228" transform="translate(-23.104 -57.122)"/>
    <path id="패스_265" data-name="패스 265" class="cls-1" d="M41.74,4.228A4.2,4.2,0,1,1,37.537,0a4.216,4.216,0,0,1,4.2,4.228" transform="translate(-11.552)"/>
    <path id="패스_266" data-name="패스 266" class="cls-1" d="M41.74,37.561a4.2,4.2,0,1,1-4.2-4.228,4.216,4.216,0,0,1,4.2,4.228" transform="translate(-11.552 -11.424)"/>
    <path id="패스_267" data-name="패스 267" class="cls-1" d="M41.74,70.894a4.2,4.2,0,1,1-4.2-4.228,4.216,4.216,0,0,1,4.2,4.228" transform="translate(-11.552 -22.849)"/>
    <path id="패스_268" data-name="패스 268" class="cls-1" d="M41.74,104.228a4.2,4.2,0,1,1-4.2-4.228,4.216,4.216,0,0,1,4.2,4.228" transform="translate(-11.552 -34.274)"/>
    <path id="패스_269" data-name="패스 269" class="cls-1" d="M41.74,137.561a4.2,4.2,0,1,1-4.2-4.228,4.216,4.216,0,0,1,4.2,4.228" transform="translate(-11.552 -45.698)"/>
    <path id="패스_270" data-name="패스 270" class="cls-1" d="M41.74,170.894a4.2,4.2,0,1,1-4.2-4.228,4.216,4.216,0,0,1,4.2,4.228" transform="translate(-11.552 -57.122)"/>
    <path id="패스_271" data-name="패스 271" class="cls-1" d="M8.407,4.228A4.2,4.2,0,1,1,4.2,0a4.216,4.216,0,0,1,4.2,4.228" transform="translate(0)"/>
    <path id="패스_272" data-name="패스 272" class="cls-1" d="M8.407,37.561a4.2,4.2,0,1,1-4.2-4.228,4.216,4.216,0,0,1,4.2,4.228" transform="translate(0 -11.424)"/>
    <path id="패스_273" data-name="패스 273" class="cls-1" d="M8.407,70.894a4.2,4.2,0,1,1-4.2-4.228,4.216,4.216,0,0,1,4.2,4.228" transform="translate(0 -22.849)"/>
    <path id="패스_274" data-name="패스 274" class="cls-1" d="M8.407,104.228A4.2,4.2,0,1,1,4.2,100a4.216,4.216,0,0,1,4.2,4.228" transform="translate(0 -34.274)"/>
    <path id="패스_275" data-name="패스 275" class="cls-1" d="M8.407,137.561a4.2,4.2,0,1,1-4.2-4.228,4.216,4.216,0,0,1,4.2,4.228" transform="translate(0 -45.698)"/>
    <path id="패스_276" data-name="패스 276" class="cls-1" d="M8.407,170.894a4.2,4.2,0,1,1-4.2-4.228,4.216,4.216,0,0,1,4.2,4.228" transform="translate(0 -57.122)"/>
  </g>
</svg>
